<?xml version="1.0" encoding="utf-8"?>
<!-- Generator: Adobe Illustrator 22.0.0, SVG Export Plug-In . SVG Version: 6.00 Build 0)  -->
<svg version="1.1" id="Layer_1" xmlns="http://www.w3.org/2000/svg" xmlns:xlink="http://www.w3.org/1999/xlink" x="0px" y="0px"
	 viewBox="0 0 200 100" style="enable-background:new 0 0 200 100;" xml:space="preserve">
<style type="text/css">
	.st0{fill:none;}
</style>
<g>
	<rect x="12" y="6.5" class="st0" width="184" height="77.8"/>
	<path d="M29.9,5.7c4.9,0,9.2,1.7,12.7,5.2c3.5,3.5,5.3,7.8,5.3,12.7c0,4.9-1.8,9.2-5.3,12.7c-3.5,3.5-7.7,5.3-12.7,5.3
		c-0.8,0-1.2-0.4-1.2-1.3c0-0.8,0.4-1.2,1.2-1.2c4.3,0,7.9-1.5,11-4.5c3-3,4.5-6.7,4.5-10.9c0-4.3-1.5-7.9-4.5-11
		c-3-3-6.7-4.5-11-4.5c-4.3,0-7.9,1.5-11,4.5c-3,3-4.5,6.7-4.5,11v50.1c0,0.8-0.4,1.2-1.2,1.2c-0.8,0-1.2-0.4-1.2-1.2V23.7
		c0-5,1.8-9.2,5.3-12.7C20.8,7.5,25,5.7,29.9,5.7z"/>
	<path d="M75.5,75c-4.9,0-9.2-1.7-12.7-5.2c-3.5-3.5-5.3-7.8-5.3-12.7V23.7c0-0.8,0.4-1.3,1.2-1.3c0.8,0,1.2,0.4,1.2,1.3v15.5h28
		c0.8,0,1.3,0.4,1.3,1.2c0,0.8-0.4,1.3-1.3,1.3H60v15.5c0,4.3,1.5,7.9,4.5,11c3,3,6.7,4.5,11,4.5c0.8,0,1.2,0.4,1.2,1.2
		S76.3,75,75.5,75z M75.5,5.7c4.9,0,9.2,1.7,12.7,5.2c3.5,3.5,5.3,7.8,5.3,12.7v33.4c0,0.8-0.4,1.3-1.2,1.3c-0.8,0-1.2-0.4-1.2-1.3
		V23.7c0-4.3-1.5-7.9-4.5-11c-3-3-6.7-4.5-11-4.5c-0.8,0-1.2-0.4-1.2-1.2C74.3,6.1,74.7,5.7,75.5,5.7z"/>
	<path d="M121.1,5.7c5.9,0,10.6,2.4,14.1,7.3c2.6,3.6,3.9,7.2,3.9,10.6v33.4c0,5-1.8,9.2-5.3,12.7c-3.5,3.5-7.7,5.2-12.7,5.2
		c-0.8,0-1.2-0.4-1.2-1.2s0.4-1.2,1.2-1.2c4.3,0,7.9-1.5,11-4.5c3-3,4.5-6.7,4.5-11V23.7c0-3-1.1-6-3.4-9.2c-3-4.2-7-6.3-12.1-6.3
		s-9.1,2.1-12.1,6.3c-2.3,3.2-3.4,6.3-3.4,9.2v15.5h28c0.8,0,1.3,0.4,1.3,1.2c0,0.8-0.4,1.3-1.3,1.3h-28v32.2c0,0.8-0.4,1.2-1.2,1.2
		s-1.2-0.4-1.2-1.2V23.7c0-3.5,1.3-7,3.9-10.6C110.5,8.1,115.2,5.7,121.1,5.7z"/>
	<path d="M150,75c-0.8,0-1.2-0.4-1.2-1.2V23.7c0-5,1.8-9.2,5.3-12.7c3.5-3.5,7.7-5.2,12.7-5.2c4.9,0,9.2,1.7,12.7,5.2
		c3.5,3.5,5.3,7.8,5.3,12.7v33.4c0,5-1.8,9.2-5.3,12.7c-3.5,3.5-7.7,5.2-12.7,5.2c-0.8,0-1.2-0.4-1.2-1.2s0.4-1.2,1.2-1.2
		c4.3,0,7.9-1.5,11-4.5c3-3,4.5-6.7,4.5-11V23.7c0-4.3-1.5-7.9-4.5-11c-3-3-6.7-4.5-11-4.5s-7.9,1.5-11,4.5c-3,3-4.5,6.7-4.5,11
		v50.1C151.2,74.6,150.8,75,150,75z"/>
</g>
<g>
	<rect x="64" y="83.7" class="st0" width="69" height="18.6"/>
	<path d="M71.2,90.9H71v-0.4h0.2H77c0.1,0,0.2,0.1,0.2,0.2c0,3.8-2.7,6.8-6,6.8c-3.3,0-6-3-6-6.8c0-3.8,2.7-6.8,6-6.8
		c2.3,0,4.4,1.4,5.2,2.9l0.1,0.3h-0.4L76,87c-0.7-1.4-2.7-2.7-4.8-2.7c-3.1,0-5.6,2.9-5.6,6.4c0,3.5,2.5,6.4,5.6,6.4
		c3.1,0,5.6-2.9,5.6-6.2H71.2z"/>
	<path d="M87,90.8c1.2,0.9,2.1,2.1,3.4,6.4l0.1,0.3h-0.4L90,97.3c-1.4-4.6-2.3-5.5-3.6-6.5h-5.6v6.4v0.2h-0.4v-0.2l0-6.4l0,0l0-0.2
		l0-6.6c0-0.1,0.1-0.2,0.2-0.2l5.8,0c2.2,0,4,1.6,4,3.5C90.4,89.2,88.9,90.6,87,90.8z M85.8,90.5L85.8,90.5l0.7,0
		c1.9,0,3.6-1.4,3.6-3.1c0-1.7-1.6-3.1-3.6-3.1h-5.6v6.2L85.8,90.5z"/>
	<path d="M92.8,90.7c0-3.8,2.7-6.8,6-6.8c3.3,0,6,3,6,6.8c0,3.8-2.7,6.8-6,6.8C95.5,97.5,92.8,94.5,92.8,90.7z M93.2,90.7
		c0,3.5,2.5,6.4,5.6,6.4c3.1,0,5.6-2.9,5.6-6.4c0-3.5-2.5-6.4-5.6-6.4C95.7,84.3,93.2,87.1,93.2,90.7z"/>
	<path d="M107.6,84.1v-0.2h0.4l0,0.2l0,9.1c0,2.2,2,3.9,4.4,3.9s4.4-1.8,4.4-3.9v-9.1v-0.2h0.4l0,0.2l0,9.1c0,2.4-2.1,4.3-4.8,4.3
		s-4.8-2-4.8-4.3V84.1z"/>
	<path d="M120.8,90.9L120.8,90.9l0-0.2l0-6.6c0-0.1,0.1-0.2,0.2-0.2l5.8,0c2.2,0,4,1.6,4,3.5c0,1.9-1.8,3.5-4,3.5h-5.6v6.4v0.2h-0.4
		v-0.2L120.8,90.9z M121.2,90.5l5.6,0c1.9,0,3.6-1.4,3.6-3.1c0-1.7-1.6-3.1-3.6-3.1h-5.6V90.5z"/>
</g>
<g>
</g>
<g>
</g>
<g>
</g>
<g>
</g>
<g>
</g>
<g>
</g>
<g>
</g>
<g>
</g>
<g>
</g>
<g>
</g>
<g>
</g>
<g>
</g>
<g>
</g>
<g>
</g>
<g>
</g>
</svg>
